# xmcd
#
# Track frame offsets:
#	150
#	17832
#	35835
#	52207
#	72137
#	93050
#	110582
#	129242
#	150017
#	167872
#	185885
#	202797
#	223870
#
# Disc length: 3219 seconds
#
# Revision: 0
# Processed by: cddbd v1.4PL0 Copyright (c) Steve Scherf et al.
# Submitted via: EasyCDDAExtractor 4.6.9.1
#
DISCID=b20c910d
DTITLE=Thalia - Amor a la Mexicana
DYEAR=1997
DGENRE=Pop
TTITLE0=Por Amor
TTITLE1=Noches Sin Luna
TTITLE2=Mujer Latina
TTITLE3=Amor a la Mexicana
TTITLE4=Rosas
TTITLE5=Echa Pa´lante
TTITLE6=Ponle Remedio
TTITLE7=Es Tu Amor
TTITLE8=De Donde Soy
TTITLE9=Dicen Por Ahi
TTITLE10=Amor a la Mexicana (Cuca´s Fiesta Edit)
TTITLE11=Por Amor (Primera Vez Mix)
TTITLE12=Mujer Latina (Zero Mix)
EXTD=1997, EMI Music, Productor Ejecutivo: Emilio Estefan Jr. - Kiker Santande
EXTD=r y Bernardo Ossa\n
EXTT0=
EXTT1=
EXTT2=
EXTT3=
EXTT4=
EXTT5=
EXTT6=
EXTT7=
EXTT8=
EXTT9=
EXTT10=
EXTT11=
EXTT12=
PLAYORDER=
